<?xml version="1.0" encoding="UTF-8"?>
<svg id="Layer_1" data-name="Layer 1" xmlns="http://www.w3.org/2000/svg" viewBox="0 0 135.29 52.51">
  <defs>
    <style>
      .cls-1 {
        fill: #6393cd;
      }
    </style>
  </defs>
  <path class="cls-1" d="M43.72,20.78c0,5.67-1.49,10.27-4.46,13.78-3.19,3.73-7.58,5.59-13.18,5.59-.94,0-2.35-.05-4.24-.16-1.89-.11-3.3-.16-4.24-.16-1.01,0-1.51,.43-1.51,1.3,0,1.08,.11,2.68,.32,4.82,.21,2.13,.32,3.73,.32,4.78,0,.54-.25,.81-.74,.81-1.43,0-3.57-.04-6.43-.12-2.86-.08-5-.12-6.43-.12-.68,0-1.02-.34-1.02-1.02,0-2.6,.04-6.51,.12-11.72,.08-5.21,.12-9.12,.12-11.72,0-7.36-.32-15.09-.95-23.2l-.04-.49c-.05-.44,.3-.71,1.05-.81,1.83-.23,5.86-.35,12.09-.35,3.68,0,7.21,.05,10.58,.14,5.55,.16,10.03,1.91,13.43,5.24,3.47,3.42,5.2,7.9,5.2,13.43Zm-14.03,.56c0-5.46-2.66-8.19-7.98-8.19-3.75,0-5.72,.21-5.91,.63-.16,.3-.25,3.01-.25,8.12,0,.73,.03,1.8,.09,3.22,.06,1.42,.09,2.49,.09,3.22,0,.47,2.11,.7,6.33,.7,5.09,0,7.63-2.57,7.63-7.7Z"/>
  <path class="cls-1" d="M94.91,50.41c0,.42-.29,.72-.88,.88-.7,.19-2.88,.28-6.54,.28-3.35,0-5.51-.09-6.47-.28-.8-.16-1.3-.69-1.51-1.58-.8-3.38-1.42-5.18-1.86-5.41-.38-.16-3.52-.25-9.42-.25-3.98,0-6.11,.11-6.36,.32-.4,.38-.84,1.63-1.34,3.76-.45,1.95-.98,3-1.62,3.16-.8,.19-3.47,.28-8.02,.28-3.59,0-5.38-.34-5.38-1.02,0-.61,2.65-8.1,7.95-22.46,5.74-15.54,8.86-24.08,9.35-25.63,.28-.89,.61-1.34,.98-1.34,.63,0,1.61,.06,2.94,.18,1.32,.12,2.31,.18,2.97,.18s1.56-.04,2.79-.12c1.23-.08,2.15-.12,2.76-.12,.44,0,.86,.39,1.23,1.16,1.15,2.46,4.5,10.9,10.05,25.31,5.58,14.51,8.37,22.08,8.37,22.71Zm-24.93-32.03c-.49,1.03-1.32,3.27-2.5,6.71-1.27,3.66-1.9,5.8-1.9,6.43,0,.42,.7,.66,2.11,.7,.73,.05,1.92,.07,3.59,.07,1.55,0,2.4-.19,2.57-.56,.05-.12,.07-.28,.07-.49,0-.77-.54-2.91-1.62-6.4-1.05-3.38-1.83-5.53-2.32-6.47Z"/>
  <path class="cls-1" d="M134.5,40.36c0,1.01-.2,2.86-.6,5.55-.42,2.93-.8,4.68-1.12,5.24-.28,.44-.67,.67-1.16,.67-.21,0-.56-.04-1.05-.11-1.71-.23-6.7-.35-14.98-.35-1.8,0-4.49-.01-8.05-.04-3.56-.02-6.23-.04-8.02-.04-.77,0-1.16-.34-1.16-1.02,0-2.62,.15-6.57,.44-11.83,.29-5.26,.44-9.21,.44-11.83s-.14-7.65-.42-14.94c-.07-1.88-.2-4.68-.39-8.4l-.04-.49c-.05-.54,.25-.81,.88-.81,1.73,0,4.34,.05,7.82,.14,3.48,.09,6.09,.14,7.82,.14s4.29-.05,7.73-.14c3.45-.09,6.02-.14,7.73-.14,1.22,0,1.92,.46,2.11,1.37,.12,.54,.3,2.17,.54,4.9,.25,2.73,.37,4.39,.37,4.97,0,.49-.23,.74-.7,.74-.14,0-.39-.01-.74-.04-6.23-.52-11.84-.77-16.8-.77-1.24,0-2,.29-2.29,.88-.12,.28-.18,1.18-.18,2.71s.23,2.65,.7,3.16c.4,.45,1.16,.67,2.29,.67,.23,0,.69-.02,1.37-.05s1.24-.05,1.69-.05c2.95,0,5.94-.08,8.96-.25,.26-.02,.9-.08,1.93-.18,.8-.09,1.43-.14,1.9-.14,.56,0,.84,.27,.84,.81,0-.49-.21,1.3-.63,5.38-.19,1.88-.28,3.75-.28,5.62,0,.47-.34,.7-1.02,.7l-3.16-.35c-1.34-.14-4.38-.21-9.14-.21h-3.73c-.96,0-1.52,.23-1.69,.7-.02,.12-.04,.84-.04,2.18,0,1.78,.12,2.93,.35,3.45,.4,.89,1.9,1.42,4.5,1.58-.05,0,1.66,0,5.13,0,1.24,0,3.09-.11,5.54-.33,2.45-.22,4.28-.33,5.5-.33,.52,0,.77,.42,.77,1.27Z"/>
</svg>